C:\GBW_MyPrograms\KinderuniversiteitApp\Resultaten\Ellis\Olaf\Olaf_v1.mot
version=1
nRows=14
nColumns=29
inDegrees=yes
endheader
                time	         pelvis_tilt	           pelvis_tx	           pelvis_ty	       hip_flexion_l	       hip_flexion_r	        knee_angle_l	        knee_angle_r	       ankle_angle_l	       ankle_angle_r	    lumbar_extension	hamstrings_r/activation	bifemsh_r/activation	glut_max_r/activation	iliopsoas_r/activation	rect_fem_r/activation	  vasti_r/activation	gastroc_r/activation	 soleus_r/activation	tib_ant_r/activation	hamstrings_l/activation	bifemsh_l/activation	glut_max_l/activation	iliopsoas_l/activation	rect_fem_l/activation	  vasti_l/activation	gastroc_l/activation	 soleus_l/activation	tib_ant_l/activation	
          0.00000000	         -9.19093677	          0.00000000	          0.89889356	          6.89686478	         32.56503848	        -19.80723172	        -19.44399390	         15.30990917	          1.81919914	         -7.46866643	          0.93632579	          0.10777343	          0.98238429	          0.12276762	          0.20667452	          0.98340040	          0.06068651	          0.10577497	          0.70675781	          0.98544736	          0.98460599	          0.11600979	          0.98299511	          0.05235244	          0.05062599	          0.98637758	          0.98565974	          0.08486450	
          0.00708382	         -9.13700112	          0.01008000	          0.89866760	          7.27685400	         31.21620209	        -21.00130242	        -15.71795674	         15.89088938	         -0.01483931	         -7.22029048	          0.95268780	          0.10759711	          0.98368878	          0.11137112	          0.18702129	          0.98137494	          0.05610755	          0.09626413	          0.79924843	          0.98494277	          0.98466051	          0.10517284	          0.98410456	          0.05254568	          0.05064526	          0.98664953	          0.98611804	          0.07722350	
          0.01416764	         -9.02962626	          0.02033843	          0.90054162	          7.89113795	         29.58316259	        -22.26816086	        -12.96246586	         16.39795912	         -2.17092285	         -7.00221013	          0.96369093	          0.10770602	          0.98447069	          0.10120363	          0.16946310	          0.98040901	          0.05215005	          0.08773420	          0.86233183	          0.98379882	          0.98468838	          0.09547943	          0.98482250	          0.05244495	          0.05063979	          0.98614175	          0.98583989	          0.07008650	
          0.02125147	         -8.87684262	          0.03072118	          0.90419645	          8.42393689	         27.76042290	        -23.43171959	        -11.23522419	         16.74527676	         -3.88503848	         -6.81378434	          0.97082911	          0.10677919	          0.98475549	          0.09212280	          0.15394739	          0.98091062	          0.05691616	          0.08057947	          0.84101333	          0.94259113	          0.98489186	          0.08684322	          0.98533815	          0.05262478	          0.05064852	          0.98723071	          0.98703210	          0.06310554	
          0.02833529	         -8.69745158	          0.04118969	          0.90281869	          8.29225621	         26.04487567	        -25.12622287	         -8.87831667	         16.85970530	         -4.17514485	         -6.64924993	          0.97590505	          0.10790486	          0.98509816	          0.08403731	          0.13997645	          0.98111627	          0.05337459	          0.07383677	          0.89067394	          0.84442383	          0.98520382	          0.07917565	          0.98512665	          0.05224273	          0.05068842	          0.98541846	          0.98524789	          0.05747887	
          0.03541911	         -8.45751964	          0.05156842	          0.89897882	          8.03414743	         25.13838594	        -27.68442802	         -7.73198008	         16.79486134	         -3.98309290	         -6.55441718	          0.97899687	          0.10346735	          0.98512883	          0.07700919	          0.12765404	          0.97537733	          0.05316129	          0.06795342	          0.92243363	          0.75482409	          0.98349374	          0.07232807	          0.98586698	          0.05258735	          0.05070456	          0.98456199	          0.98572570	          0.05460655	
          0.04250293	         -8.18881142	          0.06153215	          0.89746379	          8.19539470	         24.08323418	        -30.15149901	         -7.08639438	         16.30071007	         -3.10499011	         -6.57202413	          0.98327889	          0.10180060	          0.98802784	          0.07071037	          0.11683545	          0.97958754	          0.05312671	          0.06272118	          0.94360065	          0.67468815	          0.98247741	          0.06622726	          0.98670098	          0.05221527	          0.05069266	          0.98724606	          0.98776145	          0.05098182	
          0.04958675	         -7.90330196	          0.07090336	          0.89631183	          8.50616378	         23.28641716	        -32.54585011	         -6.77105492	         15.27144607	         -2.00900448	         -6.70323569	          0.98362828	          0.10325800	          0.98537132	          0.06531643	          0.10786468	          0.98222240	          0.05257937	          0.05796616	          0.95788344	          0.60324897	          0.98290950	          0.06099426	          0.98724342	          0.07079372	          0.05047184	          0.99120964	          0.99233735	          0.05043427	
          0.05667058	         -7.59611721	          0.07969022	          0.89613372	          8.94516175	         22.68897113	        -34.82698565	         -6.82690924	         13.68319589	         -0.98497426	         -6.94071136	          0.98498003	          0.10585535	          0.98616251	          0.06088420	          0.09926721	          0.98349418	          0.05274706	          0.05428761	          0.96720556	          0.53960268	          0.98398432	          0.05638983	          0.98727983	          0.36649184	          0.05019184	          0.99129530	          0.99275666	          0.05010725	
          0.06375440	         -7.26505476	          0.08801098	          0.89716112	          8.77729821	         21.90225334	        -38.03005534	         -6.93817920	         11.92634553	          0.03553061	         -7.31200923	          0.98555022	          0.10904546	          0.98613554	          0.05745798	          0.09167299	          0.98384987	          0.05288969	          0.05219821	          0.97320885	          0.48291615	          0.97697261	          0.05293490	          0.98702628	          0.56761570	          0.05060810	          0.98353514	          0.97390213	          0.06010083	
          0.07083822	         -6.87076205	          0.09602519	          0.89885881	          9.10628563	         21.18736684	        -40.72196556	         -7.27050211	          9.40818923	          0.89978968	         -7.80613852	          0.98530492	          0.11164757	          0.98556789	          0.05535674	          0.08544488	          0.98373041	          0.05311663	          0.05211180	          0.97700527	          0.43245830	          0.95748508	          0.05136364	          0.98681055	          0.70340853	          0.05097072	          0.98301706	          0.97823774	          0.05033374	
          0.07792204	         -6.42095588	          0.10384843	          0.90090702	          9.57375751	         20.38623583	        -43.27085978	         -7.58109833	          6.30862757	          1.65984621	         -8.40105823	          0.98495373	          0.11568787	          0.98491780	          0.05443493	          0.08029580	          0.98301051	          0.05335613	          0.05232041	          0.97946291	          0.38754671	          0.93891773	          0.05135349	          0.98663781	          0.79511389	          0.05334182	          0.98152380	          0.98054677	          0.05003259	
          0.08500587	         -5.92468712	          0.11155655	          0.90318917	         10.08145173	         19.47494194	        -45.66043721	         -7.81453846	          2.73265748	          2.33120283	         -9.07396769	          0.98450543	          0.12184511	          0.98421757	          0.05433526	          0.07621451	          0.98165591	          0.05351669	          0.05234961	          0.98109537	          0.34756664	          0.88435154	          0.05137584	          0.98652536	          0.85783390	          0.14337531	          0.96220538	          0.94336504	          0.05004314	
          0.09208969	         -5.41400334	          0.11920307	          0.90556781	         10.60758037	         18.47849748	        -47.82625677	         -7.95160269	         -1.10768375	          2.92981107	         -9.77704154	          0.98392665	          0.13032587	          0.98341042	          0.05445434	          0.07296591	          0.97801305	          0.05361473	          0.05232152	          0.98220463	          0.31196523	          0.82915716	          0.05139486	          0.98645496	          0.89949510	          0.39358202	          0.89756212	          0.84569984	          0.20099146	
